<svg xmlns="http://www.w3.org/2000/svg" xmlns:xlink="http://www.w3.org/1999/xlink" width="500" zoomAndPan="magnify" viewBox="0 0 375 374.999991" height="500" preserveAspectRatio="xMidYMid meet" version="1.0"><defs><g/><clipPath id="dd1598d587"><path d="M 160 156 L 200 156 L 200 210 L 160 210 Z M 160 156 " clip-rule="nonzero"/></clipPath><clipPath id="68017dd81b"><path d="M 187.894531 156.683594 L 199.96875 163.96875 L 172.679688 209.183594 L 160.605469 201.898438 Z M 187.894531 156.683594 " clip-rule="nonzero"/></clipPath><clipPath id="1fa786b3f8"><path d="M 161 163 L 189 163 L 189 191 L 161 191 Z M 161 163 " clip-rule="nonzero"/></clipPath><clipPath id="77726c9c85"><path d="M 171.980469 163.882812 L 188.433594 173.8125 L 178.316406 190.578125 L 161.863281 180.648438 Z M 171.980469 163.882812 " clip-rule="nonzero"/></clipPath><clipPath id="964cf532a3"><path d="M 181 165 L 207 165 L 207 191 L 181 191 Z M 181 165 " clip-rule="nonzero"/></clipPath><clipPath id="6581f9768b"><path d="M 190.148438 165.671875 L 206.601562 175.601562 L 197.5625 190.578125 L 181.109375 180.648438 Z M 190.148438 165.671875 " clip-rule="nonzero"/></clipPath></defs><rect x="-37.5" width="450" fill="#ffffff" y="-37.499999" height="449.999989" fill-opacity="1"/><rect x="-37.5" width="450" fill="#ffffff" y="-37.499999" height="449.999989" fill-opacity="1"/><g fill="#3d3b3a" fill-opacity="1"><g transform="translate(125.279516, 248.785678)"><g><path d="M 8.296875 -14.515625 C 10.285156 -14.515625 11.941406 -13.769531 13.265625 -12.28125 L 11.296875 -10.84375 C 10.421875 -11.769531 9.425781 -12.234375 8.3125 -12.234375 C 6.894531 -12.234375 5.726562 -11.742188 4.8125 -10.765625 C 3.90625 -9.796875 3.453125 -8.601562 3.453125 -7.1875 C 3.453125 -5.644531 3.90625 -4.378906 4.8125 -3.390625 C 5.726562 -2.410156 6.894531 -1.921875 8.3125 -1.921875 C 9.53125 -1.921875 10.59375 -2.492188 11.5 -3.640625 L 13.578125 -2.15625 C 12.960938 -1.289062 12.1875 -0.65625 11.25 -0.25 C 10.320312 0.15625 9.335938 0.359375 8.296875 0.359375 C 6.066406 0.359375 4.257812 -0.332031 2.875 -1.71875 C 1.5 -3.101562 0.8125 -4.867188 0.8125 -7.015625 C 0.8125 -9.242188 1.5 -11.050781 2.875 -12.4375 C 4.25 -13.820312 6.054688 -14.515625 8.296875 -14.515625 Z M 8.296875 -14.515625 "/></g></g></g><g fill="#3d3b3a" fill-opacity="1"><g transform="translate(142.994086, 248.785678)"><g><path d="M 4.09375 -14.15625 L 4.09375 -8.515625 L 10.71875 -8.515625 L 10.71875 -14.15625 L 13.234375 -14.15625 L 13.234375 0 L 10.71875 0 L 10.71875 -6.234375 L 4.09375 -6.234375 L 4.09375 0 L 1.578125 0 L 1.578125 -14.15625 Z M 4.09375 -14.15625 "/></g></g></g><g fill="#3d3b3a" fill-opacity="1"><g transform="translate(161.828219, 248.785678)"><g><path d="M 15.84375 -7.09375 C 15.84375 -4.894531 15.128906 -3.101562 13.703125 -1.71875 C 12.285156 -0.332031 10.472656 0.359375 8.265625 0.359375 C 6.085938 0.359375 4.300781 -0.320312 2.90625 -1.6875 C 1.507812 -3.050781 0.8125 -4.828125 0.8125 -7.015625 C 0.8125 -8.460938 1.125 -9.753906 1.75 -10.890625 C 2.375 -12.023438 3.257812 -12.910156 4.40625 -13.546875 C 5.5625 -14.191406 6.894531 -14.515625 8.40625 -14.515625 C 10.601562 -14.515625 12.390625 -13.84375 13.765625 -12.5 C 15.148438 -11.15625 15.84375 -9.351562 15.84375 -7.09375 Z M 3.453125 -7.1875 C 3.453125 -5.644531 3.898438 -4.378906 4.796875 -3.390625 C 5.703125 -2.410156 6.875 -1.921875 8.3125 -1.921875 C 9.738281 -1.921875 10.910156 -2.398438 11.828125 -3.359375 C 12.742188 -4.328125 13.203125 -5.601562 13.203125 -7.1875 C 13.203125 -8.632812 12.75 -9.835938 11.84375 -10.796875 C 10.9375 -11.753906 9.753906 -12.234375 8.296875 -12.234375 C 6.921875 -12.234375 5.769531 -11.757812 4.84375 -10.8125 C 3.914062 -9.875 3.453125 -8.664062 3.453125 -7.1875 Z M 3.453125 -7.1875 "/></g></g></g><g fill="#3d3b3a" fill-opacity="1"><g transform="translate(182.50162, 248.785678)"><g><path d="M 4.046875 -14.15625 L 4.046875 -5.21875 C 4.046875 -4.269531 4.332031 -3.503906 4.90625 -2.921875 C 5.476562 -2.335938 6.25 -2.046875 7.21875 -2.046875 C 8.195312 -2.046875 8.972656 -2.335938 9.546875 -2.921875 C 10.117188 -3.503906 10.40625 -4.269531 10.40625 -5.21875 L 10.40625 -14.15625 L 12.921875 -14.15625 L 12.921875 -5.09375 C 12.921875 -3.539062 12.398438 -2.242188 11.359375 -1.203125 C 10.316406 -0.160156 8.9375 0.359375 7.21875 0.359375 C 5.507812 0.359375 4.128906 -0.160156 3.078125 -1.203125 C 2.035156 -2.242188 1.515625 -3.539062 1.515625 -5.09375 L 1.515625 -14.15625 Z M 4.046875 -14.15625 "/></g></g></g><g fill="#3d3b3a" fill-opacity="1"><g transform="translate(200.955904, 248.785678)"><g><path d="M 6.578125 -14.15625 C 8.273438 -14.15625 9.566406 -13.804688 10.453125 -13.109375 C 11.335938 -12.410156 11.78125 -11.40625 11.78125 -10.09375 C 11.78125 -9.03125 11.484375 -8.160156 10.890625 -7.484375 C 10.296875 -6.816406 9.5 -6.410156 8.5 -6.265625 L 12.265625 0 L 9.21875 0 L 5.9375 -6 L 4.09375 -6 L 4.09375 0 L 1.578125 0 L 1.578125 -14.15625 Z M 6.1875 -8.15625 C 7.269531 -8.15625 8.03125 -8.316406 8.46875 -8.640625 C 8.914062 -8.972656 9.140625 -9.46875 9.140625 -10.125 C 9.140625 -11.375 8.210938 -12 6.359375 -12 L 4.09375 -12 L 4.09375 -8.15625 Z M 6.1875 -8.15625 "/></g></g></g><g fill="#3d3b3a" fill-opacity="1"><g transform="translate(217.570916, 248.785678)"><g><path d="M 8.34375 -14.15625 L 14.4375 0 L 11.5625 0 L 10.234375 -3.234375 L 4.09375 -3.234375 L 2.8125 0 L 0 0 L 6.15625 -14.15625 Z M 4.953125 -5.40625 L 9.359375 -5.40625 L 7.1875 -11.15625 Z M 4.953125 -5.40625 "/></g></g></g><g fill="#3d3b3a" fill-opacity="1"><g transform="translate(236.025199, 248.785678)"><g><path d="M 4.09375 -14.15625 L 4.09375 -8.15625 L 4.21875 -8.15625 L 10.078125 -14.15625 L 13.484375 -14.15625 L 6.859375 -7.625 L 13.921875 0 L 10.375 0 L 4.234375 -6.953125 L 4.09375 -6.953125 L 4.09375 0 L 1.578125 0 L 1.578125 -14.15625 Z M 4.09375 -14.15625 "/></g></g></g><g fill="#000000" fill-opacity="1"><g transform="translate(140.126041, 178.580839)"><g><path d="M 34.46875 0.796875 C 28.3125 0.796875 22.96875 -0.296875 18.4375 -2.484375 C 13.914062 -4.679688 10.40625 -7.851562 7.90625 -12 C 5.414062 -16.15625 4.171875 -21.15625 4.171875 -27 C 4.171875 -31.28125 4.945312 -35.226562 6.5 -38.84375 C 8.0625 -42.46875 10.273438 -45.628906 13.140625 -48.328125 C 16.003906 -51.035156 19.40625 -53.125 23.34375 -54.59375 C 27.28125 -56.070312 31.609375 -56.8125 36.328125 -56.8125 C 38.628906 -56.8125 40.972656 -56.609375 43.359375 -56.203125 C 45.742188 -55.804688 47.925781 -55.3125 49.90625 -54.71875 C 51.882812 -54.132812 53.382812 -53.492188 54.40625 -52.796875 L 54.71875 -43.234375 L 53.921875 -43.078125 C 52.367188 -46.710938 49.785156 -49.65625 46.171875 -51.90625 C 42.554688 -54.15625 38.363281 -55.28125 33.59375 -55.28125 C 29.351562 -55.28125 25.519531 -54.34375 22.09375 -52.46875 C 18.664062 -50.59375 15.945312 -47.804688 13.9375 -44.109375 C 11.925781 -40.421875 10.921875 -35.84375 10.921875 -30.375 C 10.921875 -26.625 11.46875 -22.976562 12.5625 -19.4375 C 13.664062 -15.90625 15.316406 -12.734375 17.515625 -9.921875 C 19.710938 -7.109375 22.414062 -4.882812 25.625 -3.25 C 28.84375 -1.613281 32.539062 -0.796875 36.71875 -0.796875 C 41.0625 -0.796875 44.851562 -1.921875 48.09375 -4.171875 C 51.332031 -6.421875 53.726562 -9.71875 55.28125 -14.0625 L 56.171875 -13.984375 L 54.890625 -3.53125 C 53.015625 -2.519531 50.265625 -1.546875 46.640625 -0.609375 C 43.023438 0.328125 38.96875 0.796875 34.46875 0.796875 Z M 34.46875 0.796875 "/></g></g></g><g fill="#000000" fill-opacity="1"><g transform="translate(169.987683, 217.821401)"><g><path d="M 34.46875 0.796875 C 28.3125 0.796875 22.96875 -0.296875 18.4375 -2.484375 C 13.914062 -4.679688 10.40625 -7.851562 7.90625 -12 C 5.414062 -16.15625 4.171875 -21.15625 4.171875 -27 C 4.171875 -31.28125 4.945312 -35.226562 6.5 -38.84375 C 8.0625 -42.46875 10.273438 -45.628906 13.140625 -48.328125 C 16.003906 -51.035156 19.40625 -53.125 23.34375 -54.59375 C 27.28125 -56.070312 31.609375 -56.8125 36.328125 -56.8125 C 38.628906 -56.8125 40.972656 -56.609375 43.359375 -56.203125 C 45.742188 -55.804688 47.925781 -55.3125 49.90625 -54.71875 C 51.882812 -54.132812 53.382812 -53.492188 54.40625 -52.796875 L 54.71875 -43.234375 L 53.921875 -43.078125 C 52.367188 -46.710938 49.785156 -49.65625 46.171875 -51.90625 C 42.554688 -54.15625 38.363281 -55.28125 33.59375 -55.28125 C 29.351562 -55.28125 25.519531 -54.34375 22.09375 -52.46875 C 18.664062 -50.59375 15.945312 -47.804688 13.9375 -44.109375 C 11.925781 -40.421875 10.921875 -35.84375 10.921875 -30.375 C 10.921875 -26.625 11.46875 -22.976562 12.5625 -19.4375 C 13.664062 -15.90625 15.316406 -12.734375 17.515625 -9.921875 C 19.710938 -7.109375 22.414062 -4.882812 25.625 -3.25 C 28.84375 -1.613281 32.539062 -0.796875 36.71875 -0.796875 C 41.0625 -0.796875 44.851562 -1.921875 48.09375 -4.171875 C 51.332031 -6.421875 53.726562 -9.71875 55.28125 -14.0625 L 56.171875 -13.984375 L 54.890625 -3.53125 C 53.015625 -2.519531 50.265625 -1.546875 46.640625 -0.609375 C 43.023438 0.328125 38.96875 0.796875 34.46875 0.796875 Z M 34.46875 0.796875 "/></g></g></g><g clip-path="url(#dd1598d587)"><g clip-path="url(#68017dd81b)"><path fill="#ffffff" d="M 187.894531 156.683594 L 199.96875 163.96875 L 172.667969 209.203125 L 160.59375 201.917969 Z M 187.894531 156.683594 " fill-opacity="1" fill-rule="nonzero"/></g></g><g clip-path="url(#1fa786b3f8)"><g clip-path="url(#77726c9c85)"><path fill="#ffffff" d="M 171.980469 163.882812 L 188.433594 173.8125 L 178.308594 190.589844 L 161.855469 180.660156 Z M 171.980469 163.882812 " fill-opacity="1" fill-rule="nonzero"/></g></g><g clip-path="url(#964cf532a3)"><g clip-path="url(#6581f9768b)"><path fill="#ffffff" d="M 190.148438 165.671875 L 206.585938 175.59375 L 197.546875 190.570312 L 181.109375 180.648438 Z M 190.148438 165.671875 " fill-opacity="1" fill-rule="nonzero"/></g></g><path stroke-linecap="butt" transform="matrix(0.431053, -0.613753, 0.613753, 0.431053, 155.303843, 208.317848)" fill="none" stroke-linejoin="miter" d="M -0.000913756 1.001248 L 116.887412 0.997557 " stroke="#000000" stroke-width="2" stroke-opacity="1" stroke-miterlimit="4"/><g fill="#3d3b3a" fill-opacity="1"><g transform="translate(140.856525, 265.110686)"><g><path d="M 4.0625 -7.265625 C 4.625 -7.265625 5.117188 -7.164062 5.546875 -6.96875 C 5.972656 -6.769531 6.3125 -6.5 6.5625 -6.15625 L 5.84375 -5.625 C 5.625 -5.90625 5.359375 -6.117188 5.046875 -6.265625 C 4.734375 -6.410156 4.40625 -6.484375 4.0625 -6.484375 C 3.3125 -6.484375 2.675781 -6.195312 2.15625 -5.625 C 1.644531 -5.050781 1.382812 -4.359375 1.375 -3.546875 C 1.375 -2.703125 1.628906 -2 2.140625 -1.4375 C 2.648438 -0.882812 3.289062 -0.601562 4.0625 -0.59375 C 4.914062 -0.59375 5.601562 -0.925781 6.125 -1.59375 L 6.75 -1.0625 C 6.125 -0.226562 5.226562 0.1875 4.0625 0.1875 C 3.03125 0.1875 2.175781 -0.164062 1.5 -0.875 C 0.820312 -1.59375 0.476562 -2.484375 0.46875 -3.546875 C 0.46875 -4.597656 0.804688 -5.472656 1.484375 -6.171875 C 2.171875 -6.878906 3.03125 -7.242188 4.0625 -7.265625 Z M 4.0625 -7.265625 "/></g></g></g><g fill="#3d3b3a" fill-opacity="1"><g transform="translate(150.893785, 265.110686)"><g><path d="M 4.171875 -7.265625 C 5.234375 -7.265625 6.109375 -6.910156 6.796875 -6.203125 C 7.492188 -5.503906 7.851562 -4.617188 7.875 -3.546875 C 7.863281 -2.441406 7.503906 -1.546875 6.796875 -0.859375 C 6.085938 -0.171875 5.210938 0.175781 4.171875 0.1875 C 3.097656 0.1875 2.210938 -0.164062 1.515625 -0.875 C 0.828125 -1.582031 0.476562 -2.472656 0.46875 -3.546875 C 0.46875 -4.609375 0.8125 -5.488281 1.5 -6.1875 C 2.195312 -6.882812 3.085938 -7.242188 4.171875 -7.265625 Z M 1.375 -3.546875 C 1.375 -2.691406 1.640625 -1.988281 2.171875 -1.4375 C 2.703125 -0.894531 3.367188 -0.613281 4.171875 -0.59375 C 4.972656 -0.59375 5.632812 -0.875 6.15625 -1.4375 C 6.6875 -2 6.957031 -2.703125 6.96875 -3.546875 C 6.96875 -4.359375 6.707031 -5.046875 6.1875 -5.609375 C 5.664062 -6.171875 4.988281 -6.460938 4.15625 -6.484375 C 3.34375 -6.472656 2.675781 -6.1875 2.15625 -5.625 C 1.644531 -5.0625 1.382812 -4.367188 1.375 -3.546875 Z M 1.375 -3.546875 "/></g></g></g><g fill="#3d3b3a" fill-opacity="1"><g transform="translate(162.230533, 265.110686)"><g><path d="M 1.9375 -7.078125 L 6.046875 -1.203125 L 6.0625 -1.203125 L 6.0625 -7.078125 L 6.90625 -7.078125 L 6.90625 0 L 5.84375 0 L 1.734375 -5.875 L 1.71875 -5.875 L 1.71875 0 L 0.875 0 L 0.875 -7.078125 Z M 1.9375 -7.078125 "/></g></g></g><g fill="#3d3b3a" fill-opacity="1"><g transform="translate(173.007505, 265.110686)"><g><path d="M 2.953125 -7.265625 C 3.804688 -7.265625 4.46875 -6.988281 4.9375 -6.4375 L 4.234375 -5.828125 C 3.972656 -6.242188 3.546875 -6.460938 2.953125 -6.484375 C 2.503906 -6.484375 2.140625 -6.375 1.859375 -6.15625 C 1.578125 -5.945312 1.4375 -5.660156 1.4375 -5.296875 C 1.4375 -4.972656 1.539062 -4.71875 1.75 -4.53125 C 1.96875 -4.34375 2.367188 -4.160156 2.953125 -3.984375 C 3.710938 -3.765625 4.25 -3.492188 4.5625 -3.171875 C 4.882812 -2.859375 5.046875 -2.429688 5.046875 -1.890625 C 5.046875 -1.265625 4.8125 -0.765625 4.34375 -0.390625 C 3.882812 -0.015625 3.289062 0.175781 2.5625 0.1875 C 2.070312 0.1875 1.632812 0.0976562 1.25 -0.078125 C 0.875 -0.253906 0.582031 -0.492188 0.375 -0.796875 L 1.09375 -1.390625 C 1.25 -1.140625 1.460938 -0.941406 1.734375 -0.796875 C 2.015625 -0.660156 2.304688 -0.59375 2.609375 -0.59375 C 3.023438 -0.59375 3.382812 -0.710938 3.6875 -0.953125 C 4 -1.191406 4.15625 -1.484375 4.15625 -1.828125 C 4.15625 -2.140625 4.066406 -2.382812 3.890625 -2.5625 C 3.710938 -2.75 3.421875 -2.90625 3.015625 -3.03125 L 2.203125 -3.296875 C 1.597656 -3.503906 1.171875 -3.765625 0.921875 -4.078125 C 0.671875 -4.390625 0.546875 -4.769531 0.546875 -5.21875 C 0.546875 -5.820312 0.765625 -6.3125 1.203125 -6.6875 C 1.648438 -7.0625 2.234375 -7.253906 2.953125 -7.265625 Z M 2.953125 -7.265625 "/></g></g></g><g fill="#3d3b3a" fill-opacity="1"><g transform="translate(181.565354, 265.110686)"><g><path d="M 1.6875 -7.078125 L 1.6875 -2.8125 C 1.6875 -2.09375 1.835938 -1.546875 2.140625 -1.171875 C 2.453125 -0.804688 2.910156 -0.613281 3.515625 -0.59375 C 4.128906 -0.601562 4.585938 -0.796875 4.890625 -1.171875 C 5.191406 -1.546875 5.34375 -2.082031 5.34375 -2.78125 L 5.34375 -7.078125 L 6.1875 -7.078125 L 6.1875 -2.671875 C 6.1875 -1.765625 5.953125 -1.0625 5.484375 -0.5625 C 5.023438 -0.0703125 4.367188 0.175781 3.515625 0.1875 C 2.679688 0.1875 2.03125 -0.0625 1.5625 -0.5625 C 1.09375 -1.070312 0.851562 -1.78125 0.84375 -2.6875 L 0.84375 -7.078125 Z M 1.6875 -7.078125 "/></g></g></g><g fill="#3d3b3a" fill-opacity="1"><g transform="translate(191.602611, 265.110686)"><g><path d="M 1.71875 -7.078125 L 1.71875 -0.78125 L 4.953125 -0.78125 L 4.953125 0 L 0.875 0 L 0.875 -7.078125 Z M 1.71875 -7.078125 "/></g></g></g><g fill="#3d3b3a" fill-opacity="1"><g transform="translate(199.600669, 265.110686)"><g><path d="M 5.625 -7.078125 L 5.625 -6.296875 L 3.296875 -6.296875 L 3.296875 0 L 2.453125 0 L 2.453125 -6.296875 L 0.109375 -6.296875 L 0.109375 -7.078125 Z M 5.625 -7.078125 "/></g></g></g><g fill="#3d3b3a" fill-opacity="1"><g transform="translate(208.338439, 265.110686)"><g><path d="M 1.71875 -7.078125 L 1.71875 0 L 0.875 0 L 0.875 -7.078125 Z M 1.71875 -7.078125 "/></g></g></g><g fill="#3d3b3a" fill-opacity="1"><g transform="translate(213.937454, 265.110686)"><g><path d="M 1.9375 -7.078125 L 6.046875 -1.203125 L 6.0625 -1.203125 L 6.0625 -7.078125 L 6.90625 -7.078125 L 6.90625 0 L 5.84375 0 L 1.734375 -5.875 L 1.71875 -5.875 L 1.71875 0 L 0.875 0 L 0.875 -7.078125 Z M 1.9375 -7.078125 "/></g></g></g><g fill="#3d3b3a" fill-opacity="1"><g transform="translate(224.714429, 265.110686)"><g><path d="M 4.28125 -7.265625 C 5.320312 -7.265625 6.15625 -6.953125 6.78125 -6.328125 L 6.15625 -5.671875 C 5.90625 -5.929688 5.609375 -6.128906 5.265625 -6.265625 C 4.929688 -6.410156 4.582031 -6.484375 4.21875 -6.484375 C 3.40625 -6.484375 2.726562 -6.203125 2.1875 -5.640625 C 1.65625 -5.078125 1.382812 -4.378906 1.375 -3.546875 C 1.375 -2.671875 1.644531 -1.960938 2.1875 -1.421875 C 2.738281 -0.890625 3.441406 -0.613281 4.296875 -0.59375 C 4.910156 -0.59375 5.5 -0.734375 6.0625 -1.015625 L 6.0625 -3.1875 L 4.4375 -3.1875 L 4.4375 -3.953125 L 6.90625 -3.953125 L 6.90625 -0.484375 C 6.09375 -0.0351562 5.207031 0.1875 4.25 0.1875 C 3.132812 0.1875 2.226562 -0.160156 1.53125 -0.859375 C 0.832031 -1.554688 0.476562 -2.453125 0.46875 -3.546875 C 0.476562 -4.628906 0.835938 -5.515625 1.546875 -6.203125 C 2.265625 -6.890625 3.175781 -7.242188 4.28125 -7.265625 Z M 4.28125 -7.265625 "/></g></g></g></svg>